<svg xmlns="http://www.w3.org/2000/svg" height="937pt" version="1.1" viewBox="0 -39 937.49942 937" width="937pt">
<g id="surface1">
<!-- <path d="M 859.210938 437.667969 C 843.90625 437.667969 828.945312 442.191406 816.199219 450.679688 L 705.605469 340.074219 C 723.589844 313.042969 722.933594 277.707031 703.96875 251.367188 C 684.996094 225.019531 651.683594 213.199219 620.351562 221.683594 C 589.023438 230.175781 566.230469 257.203125 563.152344 289.523438 L 417.777344 304.800781 C 410.445312 281.03125 392.136719 262.238281 368.574219 254.273438 C 345.015625 246.308594 319.058594 250.148438 298.804688 264.585938 L 144.351562 119.308594 C 152.070312 107.042969 156.179688 92.851562 156.21875 78.359375 C 156.21875 35.226562 121.25 0.25 78.109375 0.25 C 34.96875 0.25 0 35.226562 0 78.359375 C 0 121.488281 34.96875 156.46875 78.109375 156.46875 C 94.207031 156.449219 109.890625 151.421875 122.992188 142.082031 L 277.441406 287.363281 C 269.722656 299.628906 265.609375 313.820312 265.574219 328.3125 C 265.535156 369.898438 298.167969 404.183594 339.707031 406.195312 C 381.246094 408.207031 417.039062 377.25 421.03125 335.855469 L 566.40625 320.578125 C 573.652344 343.964844 591.5 362.554688 614.570312 370.738281 C 637.636719 378.929688 663.207031 375.746094 683.574219 362.164062 L 794.171875 472.769531 C 774.460938 502.65625 777.589844 542.113281 801.777344 568.519531 C 825.945312 594.921875 864.980469 601.511719 896.484375 584.507812 C 927.980469 567.503906 943.898438 531.257812 935.089844 496.5625 C 926.28125 461.859375 895.007812 437.589844 859.210938 437.667969 Z M 78.109375 125.226562 C 52.230469 125.226562 31.246094 104.238281 31.246094 78.359375 C 31.246094 52.476562 52.230469 31.496094 78.109375 31.496094 C 103.988281 31.496094 124.976562 52.476562 124.976562 78.359375 C 124.976562 104.238281 103.988281 125.226562 78.109375 125.226562 Z M 343.6875 375.179688 C 317.800781 375.179688 296.816406 354.195312 296.816406 328.3125 C 296.816406 302.425781 317.800781 281.445312 343.6875 281.445312 C 369.566406 281.445312 390.550781 302.425781 390.550781 328.3125 C 390.550781 354.195312 369.566406 375.179688 343.6875 375.179688 Z M 640.503906 343.9375 C 614.625 343.9375 593.636719 322.949219 593.636719 297.070312 C 593.636719 271.183594 614.625 250.199219 640.503906 250.199219 C 666.382812 250.199219 687.367188 271.183594 687.367188 297.070312 C 687.367188 322.949219 666.382812 343.9375 640.503906 343.9375 Z M 859.210938 562.640625 C 833.328125 562.640625 812.34375 541.65625 812.34375 515.777344 C 812.34375 489.894531 833.328125 468.910156 859.210938 468.910156 C 885.089844 468.910156 906.078125 489.894531 906.078125 515.777344 C 906.078125 541.65625 885.089844 562.640625 859.210938 562.640625 Z M 859.210938 562.640625 " style=" stroke:none;fill-rule:nonzero;fill:rgb(0%,0%,0%);fill-opacity:1;" /> -->
<path d="M 874.832031 765.726562 C 866.203125 765.726562 859.210938 772.722656 859.210938 781.351562 L 859.210938 806.128906 L 589.0625 535.976562 C 582.957031 529.878906 573.070312 529.878906 566.96875 535.976562 L 429.605469 673.339844 L 268.808594 512.542969 C 262.703125 506.445312 252.820312 506.445312 246.71875 512.542969 L 171.839844 587.417969 L 42.289062 457.867188 C 36.15625 451.949219 26.414062 452.027344 20.386719 458.058594 C 14.363281 464.078125 14.277344 473.824219 20.199219 479.957031 L 160.796875 620.550781 C 166.898438 626.644531 176.785156 626.644531 182.886719 620.550781 L 257.761719 545.679688 L 418.558594 706.472656 C 424.664062 712.5625 434.550781 712.5625 440.648438 706.472656 L 578.011719 569.109375 L 837.117188 828.21875 L 812.34375 828.21875 C 803.714844 828.21875 796.722656 835.210938 796.722656 843.835938 C 796.722656 852.460938 803.714844 859.460938 812.34375 859.460938 L 874.832031 859.460938 C 876.882812 859.46875 878.917969 859.0625 880.8125 858.269531 C 880.96875 858.269531 881.082031 858.101562 881.230469 858.035156 C 882.742188 857.34375 884.140625 856.410156 885.339844 855.257812 C 886.644531 853.945312 887.742188 852.441406 888.613281 850.800781 C 888.878906 850.296875 889.125 849.773438 889.328125 849.246094 C 890.023438 847.519531 890.398438 845.6875 890.453125 843.835938 L 890.453125 781.351562 C 890.453125 772.722656 883.460938 765.726562 874.832031 765.726562 Z M 874.832031 765.726562 " style=" stroke:none;fill-rule:nonzero;fill:rgb(0%,0%,0%);fill-opacity:1;" />
</g>
</svg>